<svg xmlns="http://www.w3.org/2000/svg" width="24" height="24" viewBox="0 0 24 24" fill="none" stroke="currentColor" stroke-width="2" stroke-linecap="round" stroke-linejoin="round" class="lucide lucide-tea-pot"><path d="M10.4 12.2c.5 0 1-.2 1.3-.5a3.4 3.4 0 0 0 1.5-2.7C13.2 8.7 13 8 13 8h6a2 2 0 0 1 2 2v.5a2.5 2.5 0 0 1-2.5 2.5h-5.9"/><path d="M15 15H9.7A6.4 6.4 0 0 1 3 8.3V7a2 2 0 0 1 2-2h12a2 2 0 0 1 2 2v1.5a2.5 2 0 0 1-2.5 2.5H15"/><path d="M2 8h1"/><path d="M13 18h7"/><path d="M17 18v3"/></svg>
